<svg xmlns="http://www.w3.org/2000/svg" xmlns:xlink="http://www.w3.org/1999/xlink" width="316" height="377" viewBox="0 0 316 377">
    <defs>
        <path id="oswcl6j4xa" d="M0.071 1.057L92.815 1.057 92.815 29.321 0.071 29.321z"/>
    </defs>
    <g fill="none" fill-rule="evenodd">
        <g>
            <g transform="translate(-26 -207) translate(26.394 207)">
                <ellipse cx="161" cy="333.5" fill="#E0C23A" rx="154" ry="43.5"/>
                <g>
                    <path fill="#FFEBCE" stroke="#281203" stroke-width="3" d="M109.041 0L109.041 11.342 94.368 17.941 119.092 43.715 145.043 17.941 129.411 11.342 129.411 0z" transform="translate(47.606 122)"/>
                    <path fill="#FFE9A4" d="M85.992 19.343c-23.783 10.29-37.74 33.964-41.868 71.022-6.193 55.587 16.815 73.518 29.342 64.552 8.35-5.976 15.318-11.691 20.902-17.145l26.36 18.41 24.315-22.023-14.381-91.642h-16.286L85.992 19.343z" transform="translate(47.606 122)"/>
                    <path fill="#DB6E54" d="M151.903 19.343l-43.606 37.97-2.088 68.358-29.575 31.44 41 5.33 57.812-6.26c17.753-5.756 22.055-37.157 12.907-94.202-8.605-20.53-20.755-34.741-36.45-42.636z" transform="translate(47.606 122)"/>
                    <g>
                        <path stroke="#FFE99A" stroke-linecap="round" stroke-linejoin="round" stroke-width="3" d="M71.029 14.894L6.514 79.477M79.825 27.416L7.237 101.887M87.061 42.776L.722 135.4M92.076 62.557L17.474 142.847M92.853 85.131L36.086 142.847" transform="translate(47.606 122) translate(99.694 19.594)"/>
                        <path stroke="#FFE98E" stroke-linecap="round" stroke-linejoin="round" stroke-width="3" d="M43.75 20.29L53.741 30.303M63.539 45.568L73.53 55.582M53.302 80.942L63.293 90.956M81.22 51.154L91.211 61.167M39.343 47.43L49.334 57.444M30.037 79.081L40.028 89.094M22.592 113.524L32.583 123.537M52.371 105.146L62.362 115.159M80.29 75.357L90.281 85.37M27.245 134.934L37.236 144.948" transform="translate(47.606 122) translate(99.694 19.594)"/>
                        <path fill="#FB915E" d="M27.16 24.158L28.924 32.91 58.905 4.178 52.209 0.26z" transform="translate(47.606 122) translate(99.694 19.594)"/>
                    </g>
                    <path fill="#FFF" stroke="#281203" stroke-linejoin="round" stroke-width="3" d="M93.436 15.825L121.193 41.747 114.451 46.545 85.992 19.343z" transform="translate(47.606 122)"/>
                    <path fill="#FFF" stroke="#281203" stroke-linejoin="round" stroke-width="3" d="M124.146 15.825L151.903 41.747 145.161 46.545 116.703 19.343z" transform="translate(47.606 122) matrix(-1 0 0 1 268.606 0)"/>
                    <path stroke="#000" stroke-linecap="round" stroke-linejoin="round" stroke-width="2" d="M158.142 23.772L127.916 53.75" transform="translate(47.606 122)"/>
                    <path fill="#FFEBCE" stroke="#281203" stroke-width="3" d="M119.495 38.953c0 2.89-.575 18.772-1.723 47.648-.586 5.881-4 9.923-10.245 12.124-9.367 3.302-2.906-17.673 0-34.493 2.906-16.82 3.974-25.744 11.968-25.279z" transform="translate(47.606 122)"/>
                    <path fill="#FFEBCE" stroke="#281203" stroke-width="3" d="M119.495 38.953c0 2.89.218 18.772.654 47.648.585 5.881 4 9.923 10.245 12.124 9.366 3.302 2.906-17.673 0-34.493-2.906-16.82-2.906-25.744-10.9-25.279z" transform="translate(47.606 122)"/>
                    <path fill="#FFEBCE" d="M96.229 74.472L106.816 69.072 106.816 125.22 96.229 135.911z" transform="translate(47.606 122)"/>
                    <path fill="#FF8B51" d="M130.662 75.217L141.248 69.817 141.248 125.965 130.662 136.656z" transform="translate(47.606 122) matrix(-1 0 0 1 271.91 0)"/>
                    <path stroke="#281203" stroke-linecap="round" stroke-linejoin="round" stroke-width="3" d="M85.992 19.343C54.896 35.51 41.122 68.145 44.67 117.247c3.548 49.102 24.061 52.072 61.54 8.907V69.817L79.762 84.446M151.485 19.343c31.097 16.167 44.871 48.802 41.323 97.904-3.548 49.102-24.042 51.8-61.484 8.094V69.004l26.391 15.442M96.509 75.427L96.229 136.631" transform="translate(47.606 122)"/>
                    <path stroke="#281203" stroke-linecap="round" stroke-linejoin="round" stroke-width="3" d="M141.784 75.427L141.504 135.911" transform="translate(47.606 122) matrix(-1 0 0 1 283.288 0)"/>
                    <g>
                        <path fill="#779973" stroke="#281203" stroke-width="3" d="M241.536 29.84c1.067-5.92-.076-12.373-5.126-17.288-6.005-5.844-10.316-12.675-31.235-10.9-40.563 3.443-78.32 17.987-113.274 43.634.832 6.171 2.131 10.884 3.899 14.139 1.768 3.254 12.73 5.184 32.886 5.79 5.169 2.358 9.2 3.393 12.097 3.103 15.764-1.573 38.155-1.12 46.108-3.102 16.5-4.113 27.599-8.813 34.88-12.585 5.881-3.048 16.506-4.69 19.765-22.791z" transform="translate(47.606 122) translate(.099 138.634)"/>
                        <g>
                            <path fill="#FFEBCE" d="M23.073 24.928c-2.386 12.872-4.362 22.14-5.928 27.803-1.111 4.018 8.131-1.42 21.273-4.06 4.1-.824 11.048-4.338 20.846-10.542 9.498-2.184 16.722-4.21 21.673-6.08 4.952-1.87 12.391-5.38 22.319-10.532 3.105-1.56 4.342-3.765 3.71-6.616-.632-2.852-2.285-4.21-4.96-4.074-.55-1.699-.857-2.737-.92-3.115-.212-1.245-1.517-1.664-3.405-1.793-4.12-.281-3.62-3.38-6.766-2.498-3.144.882-3.167-1.922-4.48-1.554-1.313.369 2.04-2.084-3.538-1.244-2.535.382-2.118 2.148-4.072 2.661-1.594.419-4.754.625-9.482.62L55.8 11.849c-4.506 1.871-7.368 2.023-8.587.455-1.828-2.352-9.25-5.84-15.854-1.362-4.402 2.985-7.165 7.647-8.287 13.986z" transform="translate(47.606 122) translate(.099 138.634) rotate(14 9.02 554.577)"/>
                            <path stroke="#281203" stroke-linecap="round" stroke-linejoin="round" stroke-width="3" d="M22.923 27.312c1.268-9.48 5.066-15.138 11.392-16.972 6.326-1.834 12.31-.169 17.949 4.996M48.903 12.362c2.284.92 6.1-.34 11.448-3.778 8.023-5.159 15.977-7.459 22.717-3.172 6.74 4.286 7.265 7.517 8.046 8.459M71.355 18.224c4.938-9.741 11.524-11.193 19.76-4.353" transform="translate(47.606 122) translate(.099 138.634) rotate(14 9.02 554.577)"/>
                            <path stroke="#281203" stroke-linecap="round" stroke-linejoin="round" stroke-width="3" d="M93.933 15.273c3.714-5.397 7.329-6.268 10.845-2.614 5.273 5.482-1.706 10.075-7.82 11.64-6.115 1.566-10.906 7.068-23.408 9.556C61.05 36.343 51.68 41.4 46.288 45.567c-3.595 2.777-18.74 6.527-45.436 11.248M79.047 3.124c1.949-3.545 4.437-4.07 7.464-1.576M83.19 5.106C85.08 1.464 87.42.849 90.21 3.258M86.542 7.973c1.62-4.4 4.065-5.518 7.335-3.352" transform="translate(47.606 122) translate(.099 138.634) rotate(14 9.02 554.577)"/>
                            <path stroke="#281203" stroke-linecap="round" stroke-linejoin="round" stroke-width="3" d="M91.114 13.87c-.357-2.25.101-4.408 1.375-6.471 3.161-5.118 9.515-.533 8.627 2.253" transform="translate(47.606 122) translate(.099 138.634) rotate(14 9.02 554.577)"/>
                        </g>
                        <path fill="#94BD8F" stroke="#281203" stroke-width="3" d="M1.266 28.663c-1.066-5.884.076-12.296 5.126-17.18C12.398 5.675 16.71-1.114 37.628.65 78.19 4.072 115.948 18.526 150.9 44.013c-1.344 5.53-2.644 10.214-3.898 14.05-1.254 3.837-4.243 7.938-8.966 12.303-44.605-1.852-71.98-4.034-82.125-6.547-16.501-4.088-27.6-8.758-34.88-12.507-5.882-3.029-16.506-4.66-19.766-22.65z" transform="translate(47.606 122) translate(.099 138.634)"/>
                        <path stroke="#281203" stroke-linecap="round" stroke-linejoin="round" stroke-width="3" d="M142.901 40.366c-4.13 14.812-9.463 24.812-16 30M148.901 49.366L144.901 46.366M146.901 56.366L141.901 53.366M144.901 62.366L140.901 60.366M142.901 66.366L136.901 64.366M138.901 68.3L135.901 67.432M10.901 17.366c-2.397 1.348-3.357 4.015-2.881 8M233.901 17.366c2.752 2.375 3.61 5.375 2.577 9" transform="translate(47.606 122) translate(.099 138.634)"/>
                    </g>
                    <path stroke="#281203" stroke-linecap="round" stroke-linejoin="round" stroke-width="3" d="M111.534 69.817c4.02-2.565 2.812-25.381 7.96-26.808" transform="translate(47.606 122)"/>
                    <path fill="#DB6E54" stroke="#281203" stroke-linecap="round" stroke-linejoin="round" stroke-width="3" d="M190.29 135.276c-4.796 20.713-22.203 21.119-38.224 11.097" transform="translate(47.606 122)"/>
                    <path fill="#FFE9A4" stroke="#281203" stroke-linecap="round" stroke-linejoin="round" stroke-width="3" d="M47.675 137.5c3.806 13.464 21.69 24.057 39.903 7.436" transform="translate(47.606 122)"/>
                </g>
                <g transform="translate(119.606)">
                    <path fill="#775930" stroke="#281203" stroke-linejoin="round" stroke-width="3" d="M12.78 101.01c-1.665 12.746-3.93 20.487-6.794 23.221-2.865 2.735 2.142 1.686 15.02-3.147l-7.296 11.8c7.52 1.323 14.983-.686 22.39-6.028s-.367-13.957-23.32-25.847zM74.255 98.667c1.903 11.555 7.1 18.597 15.594 21.126s2.81 3.228-17.05 2.096l10.138 9.603c-6.577.733-11.764.548-15.56-.557-3.797-1.104-8.061-3.669-12.794-7.693l19.672-24.575z"/>
                    <path fill="#FFEBCE" stroke="#281203" stroke-width="3" d="M11.668 82.167C3.194 80.504-.412 83.762.848 91.943c1.26 8.18 7.08 12.737 17.46 13.67l-6.64-23.446zM79.836 82.167c8.474-1.663 12.08 1.595 10.82 9.776-1.26 8.18-7.08 12.737-17.46 13.67l6.64-23.446z"/>
                    <path fill="#775930" stroke="#281203" stroke-width="3" d="M9.453 82.488c-10.027-35.075 1.695-53.049 35.165-53.92 50.205-1.309 43.416 42.79 37.394 53.92-4.015 7.42-28.202 7.42-72.56 0z"/>
                    <path fill="#FFEBCE" stroke="#281203" stroke-linejoin="round" stroke-width="3" d="M9.453 82.368c4.14 30.098 16.979 45.147 38.517 45.147 21.538 0 32.429-14.89 32.672-44.672C69.59 75.758 61.68 69.346 56.917 63.606c-4.763-5.739-8.244-9.794-10.443-12.165-.495.234-4.217 4.826-11.168 13.777-6.95 8.951-15.568 14.668-25.853 17.15z"/>
                    <g fill="#FFE9A4" stroke="#000" stroke-width="2">
                        <path d="M1 14.827v24.198h22.198V14.832L11.981 9.487 1 14.827zM23.337 7.965v31.06h25.92V7.971L36.161 1.13 23.337 7.965z" transform="translate(8.98)"/>
                        <path d="M23.337 7.965v31.06h25.92V7.971L36.161 1.13 23.337 7.965zM49.396 14.827v24.198h22.198V14.832L60.377 9.487l-10.981 5.34z" transform="translate(8.98)"/>
                    </g>
                    <path fill="#DB6E54" d="M10.84 20.277L20.954 15.824 31.316 20.277 31.316 40.025 10.84 40.025zM33.177 14.16L45.134 7.447 57.375 14.16 57.375 40.025 33.177 40.025zM59.237 20.277L69.35 15.824 79.712 20.277 79.712 40.025 59.237 40.025z"/>
                    <rect width="4.861" height="104.459" x="12.133" y="45.041" fill="#FFE9A4" stroke="#281203" stroke-width="3" rx="2.431"/>
                    <rect width="4.861" height="104.459" x="74.489" y="45.041" fill="#FFE9A4" stroke="#281203" stroke-width="3" rx="2.431"/>
                    <rect width="77.97" height="7.239" x="5.826" y="39.664" fill="#FFE9A4" stroke="#281203" stroke-width="3" rx="3.619"/>
                    <path fill="#FFEBCE" stroke="#281203" stroke-linecap="round" stroke-linejoin="round" stroke-width="3" d="M40.47 124.885c1.302 2.6 3.625 3.901 6.969 3.901 5.016 0 6.052-2.308 6.893-3.901"/>
                </g>
                <g>
                    <path fill="#FFF" d="M13 83.114L67.781 72 104 87.886 49.22 99z" transform="translate(.606 272)"/>
                    <g>
                        <path fill="#281203" d="M14.36 83.705L48.759 98.71l52.92-10.679L67.28 73.026l-52.92 10.679zM48.69 100c-.086 0-.17-.018-.25-.052L12.026 84.062c-.252-.11-.403-.371-.374-.646.028-.275.23-.499.5-.553l55.077-11.114c.125-.026.254-.012.37.04l36.416 15.886c.251.11.403.37.374.645-.029.275-.231.5-.5.553L48.812 99.987c-.04.009-.082.013-.123.013z" transform="translate(.606 272)"/>
                        <path fill="#DDC76B" d="M12.273 64.977L67.35 53.863 103.765 69.749 48.689 80.863z" transform="translate(.606 272)"/>
                        <path fill="#281203" stroke="#281203" d="M14.36 65.2l34.398 15.005 52.92-10.68L67.28 54.522 14.361 65.2zm34.33 16.294c-.086 0-.17-.017-.25-.052L12.026 65.556c-.252-.11-.403-.37-.374-.646.028-.274.23-.498.5-.552l55.077-11.115c.125-.025.254-.011.37.04l36.416 15.886c.251.11.403.371.374.646-.029.275-.231.499-.5.553L48.812 81.482c-.04.008-.082.012-.123.012h0z" transform="translate(.606 272)"/>
                        <path fill="#FFE471" stroke="#281203" stroke-linejoin="round" stroke-width="2" d="M11.805 65s-4.06 6.895 0 17.454L48.22 98.392c-4.062-10.559 0-17.506 0-17.506L11.805 65z" transform="translate(.606 272)"/>
                        <path fill="#FFF" d="M102.154 87.505V70l-52.44 10.583s-3.855 7.155 0 17.505l52.44-10.583z" transform="translate(.606 272)"/>
                        <path fill="#281203" stroke="#281203" d="M49.117 81.42c-.597 1.32-3.048 7.615-.024 16.223l51.412-10.375V71.05L49.117 81.42zM48.689 99c-.257 0-.493-.16-.586-.41-3.91-10.499-.127-17.726.036-18.029.09-.164.245-.28.427-.317l52.442-10.583c.184-.037.374.01.519.13.145.12.23.3.23.49v17.505c0 .3-.211.56-.504.619L48.812 98.988c-.041.008-.083.012-.123.012h0z" transform="translate(.606 272)"/>
                        <path fill="#E25C58" d="M101.13 82.808L75.951 88.226" transform="translate(.606 272)"/>
                        <path fill="#281203" stroke="#281203" d="M75.95 88.858c-.288 0-.548-.203-.61-.5-.073-.341.143-.677.48-.75L101 82.19c.338-.072.67.145.742.486.073.341-.143.677-.481.75l-25.18 5.418c-.043.01-.087.014-.13.014" transform="translate(.606 272)"/>
                        <path fill="#E25C58" d="M47.281 85.517L61.907 82.808" transform="translate(.606 272)"/>
                        <path fill="#281203" stroke="#281203" d="M48.625 85.972c-.296 0-.559-.213-.615-.517-.062-.343.163-.672.503-.736L63.14 82.01c.34-.062.666.164.728.508.063.343-.162.672-.502.735l-14.627 2.709c-.038.007-.076.01-.114.01" transform="translate(.606 272)"/>
                        <path fill="#FFF" d="M102.857 60.23L47.78 49.115 11.364 65.002 66.441 76.115z" transform="translate(.606 272)"/>
                        <path fill="#281203" d="M13.452 64.779l52.92 10.678 34.397-15.004-52.92-10.68-34.397 15.006zm52.99 11.968c-.042 0-.083-.004-.124-.012L11.242 65.62c-.269-.054-.471-.278-.5-.553-.029-.275.123-.537.374-.646l36.415-15.887c.117-.05.247-.065.372-.04l55.077 11.116c.268.054.47.278.5.552.028.275-.123.537-.375.646L66.69 76.695c-.08.034-.164.052-.249.052z" transform="translate(.606 272)"/>
                        <path fill="#E25C58" d="M102.857 42.724L47.78 31.61 11.364 47.495 66.441 58.61z" transform="translate(.606 272)"/>
                        <path fill="#281203" stroke="#281203" d="M13.452 47.273l52.92 10.68 34.397-15.006-52.92-10.68-34.397 15.006zm52.99 11.969c-.042 0-.083-.004-.124-.012L11.242 48.115c-.269-.054-.471-.278-.5-.553-.029-.275.123-.537.374-.646L47.531 31.03c.117-.051.247-.065.372-.04l55.077 11.115c.268.054.47.278.5.552.028.275-.123.537-.375.646L66.69 59.19c-.08.034-.164.052-.249.052h0z" transform="translate(.606 272)"/>
                        <path fill="#BF5151" d="M102.857 42.724s4.06 6.896 0 17.454L66.44 76.115c4.061-10.558 0-17.505 0-17.505l36.416-15.886z" transform="translate(.606 272)"/>
                        <path fill="#281203" stroke="#281203" d="M67.301 58.923c.864 1.876 2.96 7.739.22 16.031l34.846-15.25c3.154-8.426.974-14.453.196-16.164L67.301 58.923zm-.86 17.824c-.159 0-.315-.061-.434-.176-.182-.177-.24-.447-.15-.684 3.907-10.155.084-16.889.045-16.956-.091-.156-.112-.344-.056-.516.056-.172.182-.312.347-.384l36.415-15.887c.29-.126.626-.015.787.257.172.293 4.169 7.284.045 18.005-.06.157-.18.284-.334.35L66.69 76.696c-.08.035-.165.052-.249.052h0z" transform="translate(.606 272)"/>
                        <path fill="#FFF" d="M14 65.532V48.027L66.44 58.61s3.855 7.155 0 17.505L14 65.532z" transform="translate(.606 272)"/>
                        <path fill="#281203" stroke="#281203" d="M14.625 65.015L66.037 75.39c3.034-8.634.578-14.904-.022-16.222l-51.39-10.37v16.217zM66.44 76.747c-.04 0-.082-.004-.123-.012L13.876 66.152c-.292-.06-.503-.319-.503-.62V48.027c0-.189.085-.368.23-.488.145-.12.335-.168.519-.131l52.442 10.583c.182.037.338.153.427.318.163.302 3.946 7.529.036 18.029-.093.25-.33.41-.586.41h0z" transform="translate(.606 272)"/>
                        <path fill="#E25C58" d="M13.999 60.556L39.177 65.974" transform="translate(.606 272)"/>
                        <path fill="#281203" stroke="#281203" d="M40.805 66.682c-.043 0-.087-.005-.131-.014l-25.178-5.42c-.339-.072-.554-.407-.482-.748.072-.341.405-.558.742-.486l25.178 5.418c.339.073.554.409.482.75-.063.297-.322.5-.611.5" transform="translate(.606 272)"/>
                        <path fill="#E25C58" d="M67.849 63.264L53.222 60.556" transform="translate(.606 272)"/>
                        <path fill="#281203" stroke="#281203" stroke-width="2" d="M67.254 64.972c-.037 0-.075-.004-.114-.01l-14.627-2.71c-.34-.063-.565-.392-.503-.735.063-.343.39-.568.73-.507l14.626 2.709c.34.063.566.392.503.735-.056.304-.319.518-.615.518" transform="translate(.606 272)"/>
                        <path fill="#FFF" stroke="#281203" stroke-linejoin="round" d="M92.118 47.84L37.041 36.725 0.626 52.612 55.702 63.726z" transform="translate(.606 272)"/>
                        <path fill="#DDC76B" stroke="#281203" stroke-linejoin="round" stroke-width="2" d="M92.118 29.335L37.041 18.22 0.626 34.107 55.702 45.221z" transform="translate(.606 272)"/>
                        <path fill="#FFE471" stroke="#281203" stroke-linejoin="round" stroke-width="3" d="M92.118 29.335s4.06 6.895 0 17.453L55.702 62.726c4.062-10.558 0-17.505 0-17.505l36.416-15.886z" transform="translate(.606 272)"/>
                        <path fill="#281203" d="M91.825 30.15L56.562 45.534c.864 1.877 2.96 7.74.22 16.032l34.846-15.25c3.154-8.427.975-14.453.197-16.164M55.268 63.18c-.182-.176-.24-.446-.15-.684 3.893-10.118.083-16.89.045-16.956-.091-.156-.112-.344-.056-.516.056-.172.182-.312.347-.384L91.87 28.755c.288-.126.625-.016.786.257.172.292 4.169 7.283.046 18.005-.06.157-.182.284-.335.35L55.951 63.306c-.08.035-.165.052-.249.052-.159 0-.315-.06-.434-.176" transform="translate(.606 272)"/>
                        <path fill="#FFF" d="M3.261 52.143V34.638l52.441 10.583s3.855 7.155 0 17.505L3.261 52.143z" transform="translate(.606 272)"/>
                        <path fill="#281203" stroke="#281203" d="M3.887 35.408v16.218L55.298 62c3.025-8.607.574-14.902-.023-16.222L3.887 35.408zm51.692 27.937L3.138 52.762c-.293-.058-.503-.318-.503-.619V34.638c0-.19.084-.369.23-.488.144-.12.334-.169.519-.131L55.824 44.6c.183.037.34.153.428.318.163.303 3.946 7.53.036 18.03-.093.25-.33.409-.586.409-.04 0-.081-.004-.123-.013h0z" transform="translate(.606 272)"/>
                        <path fill="#E25C58" d="M3.261 47.165L28.44 52.584" transform="translate(.606 272)"/>
                        <path fill="#281203" stroke="#281203" d="M29.806 52.682c.289 0 .548-.204.611-.5.072-.342-.143-.677-.482-.75L4.756 46.014c-.337-.072-.67.145-.742.486-.072.34.143.676.482.749l25.179 5.418c.043.01.087.015.13.015" transform="translate(.606 272)"/>
                        <path fill="#E25C58" d="M57.111 49.874L42.484 47.165" transform="translate(.606 272)"/>
                        <path fill="#281203" stroke="#281203" d="M57.253 51.972c.297 0 .56-.213.615-.517.063-.343-.162-.672-.502-.736L42.739 48.01c-.34-.062-.666.164-.729.508-.062.343.163.672.503.735l14.627 2.709c.038.007.076.01.113.01" transform="translate(.606 272)"/>
                        <path fill="#71C2CF" d="M14.252 11.803L69.329 0.689 105.745 16.575 50.668 27.689z" transform="translate(.606 272)"/>
                        <g transform="translate(.606 272) translate(13.556)">
                            <path fill="#281203" stroke="#281203" d="M55.705 1.347L2.785 12.026l34.397 15.006 52.92-10.68L55.705 1.347zm-18.84 26.922L.447 12.383c-.25-.11-.402-.371-.373-.646.028-.275.23-.5.5-.553L55.65.07c.125-.026.254-.012.371.04l36.416 15.885c.251.11.402.371.374.646-.029.275-.231.499-.5.553L37.236 28.309c-.041.008-.082.012-.123.012-.085 0-.17-.017-.249-.052h0z"/>
                        </g>
                        <path fill="#478E96" d="M14.252 11.803s-4.06 6.896 0 17.454l36.416 15.938c-4.06-10.559 0-17.506 0-17.506L14.252 11.803z" transform="translate(.606 272)"/>
                        <path fill="#281203" stroke="#281203" d="M14.546 12.62c-.778 1.71-2.958 7.737.197 16.163l34.845 15.25c-2.74-8.292-.644-14.155.22-16.03L14.546 12.618zm35.873 33.154L14.003 29.836c-.153-.067-.274-.193-.334-.35-4.124-10.722-.127-17.713.045-18.005.161-.273.497-.384.787-.257L50.917 27.11c.164.072.29.212.346.384.056.172.035.36-.056.516-.039.067-3.862 6.8.045 16.956.091.238.032.507-.15.684-.119.115-.275.176-.434.176-.084 0-.169-.017-.249-.052h0z" transform="translate(.606 272)"/>
                        <path fill="#FFF" d="M103.11 34.612V17.106L50.668 27.69s-3.854 7.155 0 17.506l52.442-10.583z" transform="translate(.606 272)"/>
                        <path fill="#281203" stroke="#281203" d="M102.484 17.877l-51.39 10.37c-.6 1.318-3.056 7.588-.022 16.222l51.412-10.375V17.877zm-52.402 27.54c-3.91-10.5-.126-17.726.036-18.029.09-.165.246-.28.427-.318l52.442-10.583c.184-.037.375.011.52.131.145.12.229.3.229.489v17.505c0 .3-.21.56-.503.619L50.79 45.814c-.041.008-.082.012-.123.012-.256 0-.493-.16-.586-.41h0z" transform="translate(.606 272)"/>
                        <path fill="#E25C58" d="M103.11 29.635L77.932 35.053" transform="translate(.606 272)"/>
                        <path fill="#281203" stroke="#281203" d="M76.625 35.682c.044 0 .088-.005.131-.014l25.178-5.419c.339-.073.554-.408.482-.75-.072-.34-.405-.557-.742-.485l-25.178 5.418c-.339.073-.554.409-.482.75.063.296.322.5.611.5" transform="translate(.606 272)"/>
                        <path fill="#E25C58" d="M49.26 32.343L63.887 29.635" transform="translate(.606 272)"/>
                        <path fill="#281203" stroke="#281203" d="M49.625 34.972c.038 0 .076-.004.114-.01l14.627-2.71c.34-.063.565-.392.503-.735-.063-.343-.39-.568-.729-.507L49.513 33.72c-.34.063-.565.392-.503.735.056.304.319.518.615.518" transform="translate(.606 272)"/>
                        <path fill="#E25C58" d="M20.416 14.645L20.153 31.278 28.002 34.792 28.266 18.159z" transform="translate(.606 272)"/>
                        <path fill="#281203" d="M27.426 34.192l.245-15.451-6.679-3.496-.244 15.452 6.678 3.495zm1.425-16.023l-.263 16.633c-.006.326-.272.586-.595.58l-7.85-3.514c-.322-.005-.58-.274-.575-.6l.263-16.632c.005-.327.272-.587.595-.582l7.849 3.515c.323.005.581.274.576.6z" transform="translate(.606 272)"/>
                    </g>
                </g>
            </g>
        </g>
    </g>
</svg>
