<svg xmlns="http://www.w3.org/2000/svg" xmlns:xlink="http://www.w3.org/1999/xlink" width="283" height="144" viewBox="0 0 283 144">
    <defs>
        <path id="8rkmtdi0da" d="M0.037 0.313L65.149 0.313 65.149 76.037 0.037 76.037z"/>
    </defs>
    <g fill="none" fill-rule="evenodd">
        <g>
            <g transform="translate(-44 -50) translate(44 51)">
                <circle cx="72" cy="74" r="44" fill="#281203"/>
                <circle cx="175.5" cy="48.5" r="30.5" fill="#281203"/>
                <g transform="translate(0 5)">
                    <ellipse cx="5.75" cy="89.423" stroke="#281203" stroke-width="3" rx="4.25" ry="4.269"/>
                    <ellipse cx="212.692" cy="4.525" stroke="#281203" stroke-width="3" rx="2.813" ry="2.827"/>
                    <ellipse cx="15.813" cy="70.673" fill="#281203" rx="2.396" ry="2.404"/>
                    <ellipse cx="18.688" cy="109.135" fill="#E0C23A" rx="3.354" ry="3.365"/>
                    <ellipse cx="270.25" cy="118.269" fill="#E0C23A" rx="5.75" ry="5.769"/>
                    <ellipse cx="245.276" cy="7.409" fill="#281203" rx="2.396" ry="2.404"/>
                </g>
                <path fill="#281203" d="M155.73 78.401l120.923-19.34c3.027-.485 5.841 2.004 6.288 5.557.04.315.059.632.059.949v23.67c0 3.22-2.013 5.927-4.73 6.362l-120.923 19.34c-3.027.485-5.841-2.004-6.288-5.557-.04-.315-.059-.632-.059-.949v-23.67c0-3.22 2.013-5.927 4.73-6.362z"/>
                <path fill-rule="nonzero" stroke="#281203" stroke-linejoin="round" stroke-width="13" d="M66.387 64.323L62 53.384l5.146-2.088 4.316 10.945-5.075 2.082zm10.02.264l-4.351-10.942 5.11-2.085 4.352 10.942-5.111 2.085zM125.803 92l7.747-16.683 4.888-.758.092 14.227 7.101-.968-.092-14.32 6.18-.935v5.733l-3.044.693.83 6.914 3.597-.953 2.582-.63 3.136-.797V80.38l-.185-12.273v-3.514l-13.096 1.878v-5.918l7.194-1.073 3.412-.465.092-3.526.185-12.693.092-3.619-3.597.49-7.378 1.099V35.68l-7.101.968v5.086l-3.136.427v-5.733l-7.009.956v5.825l-10.698 1.458v7.028l10.606-1.446v5.733l-7.378 1.098-3.505.478v20.065l8.393-1.144-6.272 13.245L125.803 92zm-20.566-2.467l.092-3.526.184-20.09 9.13-5.683-7.562-14.78-22.503 13.793 7.563 14.873 6.363-3.827-.184 16.577v3.606l6.917-.943zm40.302-36.007v-5.733l3.781-.608-.092 5.746-3.689.595zm-10.33 1.5v-5.825l3.229-.44v5.733l-3.228.532zm-.091 13.05v-6.01l3.32-.452v5.917l-3.32.545zm-7.01 1.048l-3.78.516v-6.01l3.78-.516v6.01zm37.624-25.378l4.708-11.844-4.579-1.119-4.644 11.836 4.515 1.127zm9.71.526l5.143-11.904-5.073-1.05-5.072 11.893 5.002 1.06zm52.178 29.41l12.727-3.86-1.015-6.243-.737-3.875-1.015-6.242-12.727 3.862 1.014 6.241.093.635-5.534.662 1.752-10.502 15.863-2.07v-7.028l-5.257.717v-4.808l3.32-.453v-7.027l-3.32.453v-4.161l-15.309 2.086v4.069l-3.412.373v7.12l3.412-.466v4.808l-5.35.637v6.935l2.952-.31-2.213 13.524-.738 4.17 4.15-.474 10.79-1.378.554 2.606zm13.372-2.932l15.218-2.26-.093-6.09 7.102-.875 3.597-.49v-3.514L267 31.606V28l-3.505.57-7.562 1.031v-1.11l-15.31 2.272.093 7.57.276 24.743v7.674zm-47.311 4.878l5.072-1.154 11.528-1.664-.276-36.856-2.03.277v-.093l-24.07 3.189-.092 3.434-.37 28.807-.091 3.618 7.1-.875v-6.843l3.69-.78-.369-6.977-3.228.717.092-3.896 3.228-.44.092-7.04-3.227.44.092-4.08 5.164-.612.185 23.183-3.228.81.738 6.835zm66.125-20.757l-3.78.423-.093-18.573 4.058-.646-.185 18.796z"/>
                <path fill="#FFF" fill-rule="nonzero" d="M227.925 74.04l12.628-3.892-1.006-6.29-.732-3.906-1.007-6.29-12.628 3.891 1.006 6.29.092.64-5.49.667 1.738-10.584 15.74-2.086v-7.083l-5.216.723v-4.846l3.294-.456v-7.083l-3.294.457v-4.194l-15.191 2.103v4.1l-3.386.376v7.176l3.386-.47v4.847l-5.308.641v6.99l2.929-.313-2.197 13.63-.732 4.202 4.118-.477 10.707-1.39.549 2.627zm13.269-2.955l15.1-2.277-.092-6.138 7.046-.883 3.569-.494v-3.54L267 31.633V28l-3.477.575-7.504 1.039v-1.119l-15.191 2.29.092 7.629.274 24.936v7.735zM194.249 76l5.033-1.163 11.44-1.677-.275-37.144-2.014.28v-.094l-23.884 3.214-.091 3.46-.366 29.032-.092 3.647 7.046-.882v-6.896l3.66-.786-.365-7.032-3.203.723.091-3.926 3.203-.444.092-7.095-3.203.444.091-4.113 5.125-.617.183 23.365-3.203.816.732 6.888zm65.613-20.92l-3.752.427-.091-18.718 4.026-.65-.183 18.942z"/>
                <g>
                    <path fill="#FEFEFE" d="M15.657 17.206S9.596 32.011 20.02 37.784c10.424 5.772 22.293.656 22.293.656s4.15.428 3.151 5.871c-.997 5.444.217 6.773-5.612 9.863s-13.345 12.228-6.734 13.418l6.912-1.836s3.088-3.778 3.638 2.522c.55 6.301 6.007 11.232 9.29 1.513l1.237-8.46 12.471-14.834 5.043-9.469 1.979-6.93 2.582-6.903s2.244-6.275-7.359-13.044l-3.35-3.377s-1.163-4.78-3.634-4.674c-2.471.106-3.52-4.077-16.726 4.4 0 0-14.204-3.941-19.068 1.826 0 0-7.79 2.326-10.476 8.88" transform="translate(9 66)"/>
                    <path fill="#DA6D53" d="M56.777 55.043s-4.59-8.728 2.481-12.428c7.07-3.701 10.499-1.11 10.499-1.11s-6.344 14.123-12.98 13.538M41.84 5.973s-.906 10.429 15.648 7.38c0 0-3.812 4.498 6.575 5.567 10.387 1.068 5.515 2.453 5.515 2.453L65.92 14.7 55.314 7.485 41.84 5.973zM22.234 10.785s3.225 13.353-10.255 13.475c0 0 5.23-12.849 10.255-13.475" transform="translate(9 66)"/>
                    <g transform="translate(9 66) translate(11.979 .198)">
                        <mask id="yrcdi3putb" fill="#fff">
                            <use xlink:href="#8rkmtdi0da"/>
                        </mask>
                        <path fill="#25150D" d="M36.863 48.06l.155.37 2.74-.98-1.389-1.235-1.506 1.845M63.06 22.184l-.325-.285-2.364.638 1.145 3.948.347.026c.4-1.442.799-2.884 1.197-4.327m-26.103 21.85c-.471.3-.898.543-1.295.828-.817.589-1.123 1.881-.647 2.76.341.631.748.86 1.296.16.532-.681 1.113-1.324 1.69-2.004l-1.044-1.743m1.353-13.566c-.407.91-.673 1.604-1.022 2.255-.342.637-.768 1.228-1.16 1.844 2.074 1.055 4.075.801 5.34-.758l-3.158-3.34m-6.784 32.817c1.9 2.307 1.227 5.349 2.532 8.093.11-3.543.713-6.663 2.345-9.323l-3.432-1.038-1.445 2.268m31.63-42.353c-.356-1.395-.552-2.767-1.058-4.012-1.262-3.106-2.844-3.531-5.694-1.69-.068.044-.118.118-.107.107 1.297 2.14 2.584 4.263 3.86 6.365l3-.77m-30.848 31.24l-.34-.159c-.542.696-1.417 1.326-1.572 2.1-1.04 5.185-3.234 9.455-8.715 11.682 1.977-.091 3.24-1.062 4.619-1.813 1.038-.565 2.248-1.336 3.3-1.225 1.38.146 1.813-.515 2.439-1.366.588-.799.79-1.56.464-2.524-.182-.538-.18-1.152-.187-1.733-.023-1.654-.008-3.308-.008-4.962m27.07-38.92c-.524-.442-.965-.886-1.474-1.23-2.159-1.46-4.224-2.996-5.404-5.442-.103-.214-.547-.411-.8-.377-1.707.23-3.074 1.046-3.995 2.277l8.076 6.067 3.597-1.295M19.8 65.544c4.973-.938 9.598-6.533 9.662-11.667-2.238 1.625-4.47 2.971-6.35 4.703-1.302 1.2-2.223 2.871-3.1 4.451-.36.65-.155 1.615-.212 2.513M40.87 60.58c-1.099.327-2.084.606-3.06.918-.22.07-.482.208-.591.394-2.019 3.463-2.869 7.165-2.166 11.157.175 1 .894 1.14 1.551.579.68-.58 1.257-1.33 1.72-2.102 2-3.338 1.876-7.175 2.546-10.946m-5.08-55.698c3.404 1.053 6.912 2.145 10.428 3.211.225.068.61.022.753-.13 1.309-1.382 2.904-2.202 4.846-2.504-.983-1.89-2.36-3.182-4.412-3.443-4.335-.551-8.119 1.144-11.615 2.866m-.49 18.5c0 .039-.015.09.003.112.102.129.198.266.32.372 1.662 1.454 2.895 3.116 2.727 5.488-.013.186.048.446.175.562 1.207 1.111 2.435 2.198 3.67 3.304l4.996-9.063c-2.409-2.018-8.79-2.439-11.89-.774m-5.127-5.398c1.334 1.529 2.573 2.983 3.863 4.39.19.206.68.33.948.24 4.262-1.427 8.434-1.296 12.509.662 1.174-3.041-.572-6.653-3.96-7.864-4.133-1.479-8.122-.826-11.897 1.3-.49.276-.87.747-1.463 1.272m-8.944 20.911c5.06-.395 9.59-2.043 13.049-5.935 2.256-2.538 2.78-5.004-.219-7.845-3.715-3.519-6.196-7.841-7.262-12.918-.196-.935-.5-1.855-.834-2.751-.85-2.286-3.876-3.156-5.255-2.793-5.818 1.53-10.978 4.23-14.764 9.083-2.563 3.286-3.943 7-3.325 11.224.822 5.61 4.54 8.732 9.499 10.65 2.49.962 5.1 1.352 7.978 1.248-.347-.914-.564-1.677-.918-2.37-.362-.709-.859-1.349-1.334-2.076 1.628.462 2.461 1.57 3.385 4.483m12.537 9.997c-.163 1.1-.405 1.985-.404 2.87.001 2.174.03 4.354.209 6.518.172 2.078 1.105 2.74 3.115 2.298 1.501-.331 2.969-.82 4.44-1.277.293-.09.575-.31.791-.54 1.178-1.242 2.369-2.475 3.49-3.769 3.393-3.911 7.041-7.64 10.059-11.826 4.055-5.627 5.109-12.033 2.932-18.74-2.366-7.29-7.568-11.853-14.51-14.607-5.487-2.176-11.287-2.485-17.087-2.745-.041-.001-.087.109.07-.1l2.72 9.724c3.995-3.042 8.247-3.927 12.776-3.016 6.693 1.346 9.057 7.541 5.288 13.23-1.214 1.833-2.138 3.864-3.123 5.84-.144.289-.004 1.037.2 1.128.827.367 1.784.88 2.592.742 1.322-.225 1.924-1.414 2.241-2.664-1.977-1.216-2.39-1.926-2.016-3.56.376.523.614 1.124 1.056 1.408.687.442 1.544.982 2.272.91.942-.095 1.23-1.073 1.278-2.04.03-.598.269-1.186.36-1.558.508 1.038.79 2.348 1.597 3.057.819.72 2.157.845 3.275 1.233-1.072 1.095-2.454.876-4.517-.644-.616.394-1.203.755-1.77 1.142-.186.127-.405.298-.472.495-.402 1.19.139 3.036.962 3.403.93.415 2.52-.203 3.25-1.328.29-.447.43-.99.667-1.476.107-.219.287-.402.526-.728.27 2.283-.567 3.776-2.49 4.403-.677.22-1.598.37-2.168.078-.765-.392-1.297-1.242-1.724-1.682-1.091.28-2.18.864-3.176.732-.992-.13-1.89-.978-2.866-1.532-2.583 2.791-4.508 3.244-8.282 1.898-.259-.093-.663-.086-.875.059-.683.468-1.307 1.021-1.771 1.395l1.892 5.237c.917-1.029 1.686-2.397 3.211-2.955-.167.858-.497 1.59-.404 2.264.23 1.663 1.03 3.09 2.385 4.13 1.341 1.028 1.361 1.897-.124 2.76-1.815 1.054-3.705 1.173-5.875-.167M18.55 50.502c-.469 1.418-1.527 1.561-2.604 1.39-1.133-.178-1.873-.894-1.972-2.109-.123-1.498.62-2.666 1.549-3.712.858-.969 1.826-1.84 2.706-2.79.443-.477.799-1.035 1.36-1.777-3.94-.143-7.503-.81-10.66-2.47-.738.92-1.422 1.736-2.062 2.585-.525.695-1.135 1.37-1.468 2.157-.787 1.86.356 3.794 2.315 4.189.325.065.6.381.898.582-.358.134-.725.405-1.071.38-2.547-.184-4.258-3.357-3.04-5.816.543-1.098 1.42-2.05 2.237-2.986 1.128-1.292 1.142-1.585-.192-2.531-7.021-4.98-8.597-14.121-3.57-21.707 4.25-6.414 10.318-10.23 17.915-11.17 3.404-.42 6.913.043 10.374.042.753 0 1.582-.12 2.248-.446C37.192 2.507 40.862.71 45.04.363c3.466-.287 6.479.6 8.27 3.764 1.55 2.738 3.686 4.743 6.18 6.59 5.4 4 7.172 10.253 4.284 15.988-1.268 2.517-1.95 4.965-2.275 7.716-.685 5.79-3.749 10.496-7.5 14.757-2.623 2.978-5.28 5.95-8.164 8.665-2.223 2.094-3.312 4.456-3.525 7.456-.209 2.945-1.05 5.76-2.753 8.236-.924 1.344-2.018 2.593-3.8 2.497-1.88-.101-2.874-1.54-3.397-3.118-.667-2.01-1.097-4.105-1.529-6.184-.447-2.15-1.114-2.504-2.963-1.295-1.722 1.125-3.452 2.17-5.533 2.515-3.236.537-5.38-1.478-4.547-4.642.452-1.716 1.315-3.49 2.476-4.81 1.522-1.73 3.503-3.061 5.326-4.514.649-.516 1.381-.954 2.13-1.315 5.58-2.685 5.053-7.829 3.746-11.937-.473-1.486-1.11-1.536-2.617-1.093-2.386.7-4.834 1.186-7.25 1.784-.33.08-.72.202-.925.44-1.19 1.387-2.351 2.799-3.484 4.233-.669.846-1.374 1.694-1.85 2.648-.228.455-.172 1.347.14 1.698.325.367 1.11.41 1.698.426.454.012.914-.235 1.371-.366" mask="url(#yrcdi3putb)"/>
                    </g>
                    <path fill="#25150D" d="M33.369 22.768c.027-2.865-2.542-5.98-4.94-5.988-2.953-.01-6.065 2.997-6.082 5.875-.017 2.896 2.82 5.643 5.865 5.681 2.882.036 5.126-2.387 5.157-5.568m1.721.03c-.015 4.037-3.04 7.25-6.816 7.237-3.943-.013-7.637-3.598-7.628-7.402.008-3.638 3.424-7.052 7.039-7.035 4.02.018 7.42 3.323 7.405 7.2" transform="translate(9 66)"/>
                    <path fill="#FEFEFE" d="M28.718 20.41c-1.201.014-2.288 1.144-2.295 2.386-.006 1.32 1.192 2.475 2.518 2.425 1.257-.047 2.295-1.117 2.297-2.37.002-1.31-1.18-2.456-2.52-2.44" transform="translate(9 66)"/>
                    <path fill="#25150D" d="M28.718 20.41c1.34-.015 2.522 1.13 2.52 2.441-.002 1.253-1.04 2.323-2.297 2.37-1.326.05-2.524-1.104-2.518-2.425.007-1.242 1.094-2.372 2.295-2.386" transform="translate(9 66)"/>
                    <path stroke="#25150D" stroke-width="3" d="M13.905 27.644s2.653-1.78 4.877 1.402c1.264 1.81 1.445 4.713-1.084 6.764" transform="translate(9 66)"/>
                    <path fill="#25150D" d="M14.868 25.702c-.711.36-1.521.514-2.339.478-.815-.042-1.65-.315-2.345-.827-.702-.5-1.267-1.205-1.657-1.971-.23-.373-.353-.786-.512-1.185-.081-.208-.144-.387-.208-.57-.06-.185-.133-.364-.21-.54-.563-1.428-1.474-2.688-2.768-3.372-1.29-.686-2.873-.798-4.406-.497 1.406-.723 3.152-.908 4.726-.261.79.31 1.483.861 2.06 1.502.562.658.986 1.42 1.317 2.207.082.198.157.398.22.601.067.203.134.41.199.582.133.358.245.731.424 1.06.297.702.754 1.293 1.287 1.782 1.082.972 2.673 1.289 4.212 1.011" transform="translate(9 66)"/>
                </g>
                <path fill-rule="nonzero" stroke="#281203" stroke-linejoin="round" stroke-width="11" d="M35.996 36.397l3.107-8.968 11.174-1.694.068-4.49-9.64 1.456 1.02-2.849-8.633-3.04-5.777 16.613 8.681 2.972zM25.531 57.1l-.145-35.42-9.09 1.879.098 35.43 9.137-1.89zm-10.302-6.68l.076-15.7-3.467.54-.12 15.772 3.51-.612zm27.388-13.11c.45-.09.873-.278 1.265-.565.393-.287.743-.635 1.05-1.044.308-.409.53-.87.668-1.385.138-.514.205-1.031.201-1.552v-.104c-.008-1.111-.331-1.994-.97-2.649-.64-.655-1.395-.895-2.268-.72-.901.18-1.666.723-2.294 1.63-.629.908-.94 1.918-.932 3.029l.001.104c.008 1.11.338 1.966.99 2.566.313.285.66.494 1.041.627.382.132.798.154 1.248.064zm7.862 17.245l-.018-16.29-15.98 3.21.033 4.812 12.392-2.539-.001 6.658-4.286.877-.083-5.371-3.54.788.036 5.318-5.218 1.006-.079-11.523-3.587.735.158 16.324 20.173-4.005zm30.484-11.443l5.871-1.428 5.668-1.136.08-18.3 2.094-.42.018-4.84-2.093.419.026-3.587-9.754 1.892-.026 3.587-11.236 2.125.033 4.832 11.184-2.116-.009 13.699-2.093.545.237 4.728zm-25.746.793l9.03-1.861-.003-.294 6.573-1.194-.21-16.883-.015-2.23-1.796.359-3.924.842.078 4.45 2.08-.415.163 10.075-3.026.604-.02-3.051 1.843-.368-.027-4.05-1.844.368-.1-7.62-9.03 1.803.228 19.465zm22.545-5.394c1.367-.273 2.547-1.12 3.54-2.543.992-1.422 1.482-2.969 1.47-4.64v-.122c-.012-1.753-.522-3.141-1.531-4.164-1.01-1.024-2.197-1.399-3.565-1.126-1.467.293-2.664 1.144-3.59 2.553-.463.664-.825 1.4-1.087 2.206-.261.808-.39 1.66-.383 2.557v.122c.006.815.145 1.573.417 2.274.272.7.643 1.29 1.114 1.768.942 1.036 2.147 1.408 3.615 1.115zm54.29-13.176l4.29-2.07-.272-18.526-17.63 2.903.468-2.383-3.967-.228-1.775 9.106 3.966.228.374-2.013 15.02-2.572.073 10.627-1.35.675.803 4.253zM98.961 41.4l5.265-1.485 6.072-1.274-.11-8.61 2.155-.959-.635-4.627-1.553.643-.01-1.585 1.856-.39-.033-4.88-1.857.39-.028-4.184-9.584 2.01.029 4.183-1.807.38.034 4.88 1.806-.379.025 3.613-2.105.822.685 4.68 1.453-.622.014 2.092-1.856.516.184 4.786zm36.603-7.65l.561-1.4 2.09-5.396-3.587-1.2-1.53 3.938-12.178 1.907.03-3.123 6.682-1.566 2.02-.502-.118-2.153-.264-8.3-.067-2.105-8.291 1.284-.004-.528-8.549 1.627.041 21.28 5.596-1.065 17.568-2.697zm-13.082-9.277l-.029-4.191 3.571-.548.15 3.773-3.692.966z"/>
                <path fill="#FFF" fill-rule="nonzero" d="M35.826 38.283l2.792-9.07 11.108-2.083-.088-4.49-9.585 1.791.92-2.882-8.733-2.737-5.194 16.805 8.78 2.666zM26.09 59.34l-1.381-35.394-9.018 2.195 1.334 35.406 9.065-2.207zm-10.53-6.316L15.09 37.33l-3.446.66.43 15.767 3.488-.734zm26.915-14.058c.447-.105.862-.308 1.245-.609.382-.3.72-.66 1.013-1.08.293-.42.5-.888.619-1.407.12-.519.168-1.038.146-1.559l-.004-.104c-.046-1.11-.4-1.98-1.062-2.613-.661-.632-1.425-.846-2.291-.641-.895.211-1.64.781-2.236 1.71-.596.93-.871 1.949-.825 3.059l.004.104c.047 1.11.406 1.953 1.08 2.53.321.274.675.471 1.061.59.386.12.803.126 1.25.02zm8.459 16.96l-.586-16.28-15.858 3.766.2 4.808 12.296-2.97.231 6.654-4.253 1.027-.27-5.366-3.51.912.221 5.313-5.18 1.187-.48-11.512-3.56.859.728 16.309 20.02-4.707zM81 43.425l5.818-1.632 5.625-1.333-.559-18.291 2.078-.493-.15-4.839-2.079.492-.098-3.585-9.682 2.23.098 3.586-11.154 2.517.201 4.827L82.202 24.4l.469 13.69-2.073.618.402 4.717zm-25.703 1.691l8.96-2.175-.013-.293 6.527-1.423-.799-16.866-.093-2.228-1.783.421-3.892.979.233 4.445 2.065-.488.514 10.064-3.002.71-.128-3.05 1.83-.432-.169-4.046-1.83.432-.365-7.612-8.961 2.117.906 19.445zM77.64 38.94c1.357-.32 2.507-1.209 3.449-2.665.942-1.456 1.378-3.02 1.308-4.69l-.005-.121c-.073-1.752-.631-3.12-1.675-4.108-1.044-.988-2.245-1.321-3.602-1-1.456.343-2.623 1.235-3.498 2.676-.44.68-.777 1.427-1.01 2.243-.233.816-.331 1.672-.294 2.568l.005.122c.034.815.2 1.567.496 2.258.296.691.688 1.267 1.175 1.728.978 1.003 2.195 1.333 3.651.989zm53.797-15.063l4.215-2.218-.918-18.506-17.517 3.517.384-2.399-3.972-.088-1.457 9.162 3.972.089.303-2.025 14.922-3.094.443 10.618-1.325.721.95 4.223zm-32.51 17.21l5.21-1.668 6.024-1.485-.41-8.6 2.12-1.034-.796-4.603-1.53.697-.066-1.583 1.842-.454-.204-4.877-1.841.454-.175-4.18-9.507 2.344.174 4.18-1.792.441.204 4.876 1.792-.441.15 3.61-2.074.895.848 4.653 1.43-.672.087 2.09-1.836.58.35 4.777zm36.314-8.922l.512-1.42 1.9-5.466-3.627-1.072-1.39 3.988-12.105 2.33-.079-3.121 6.623-1.799 2.001-.572-.193-2.148-.554-8.286-.14-2.1-8.241 1.572-.022-.528-8.487 1.925.784 21.266 5.555-1.26 17.463-3.31zm-13.398-8.816l-.175-4.187 3.55-.672.28 3.766-3.655 1.093z" transform="rotate(2 74.649 32.35)"/>
                <path fill="#DB6E54" d="M65.636 64L61 53.083 66.439 51 71 61.921zM77.598 64L73 53.081 78.402 51 83 61.919zM125.587 92L133.427 75.412 138.373 74.658 138.467 88.804 145.653 87.841 145.56 73.603 151.813 72.674 151.813 78.374 148.733 79.062 149.573 85.937 153.213 84.99 155.827 84.364 159 83.572 159 80.446 158.813 68.243 158.813 64.749 145.56 66.616 145.56 60.732 152.84 59.665 156.293 59.202 156.387 55.696 156.573 43.075 156.667 39.477 153.027 39.965 145.56 41.057 145.56 36 138.373 36.963 138.373 42.019 135.2 42.444 135.2 36.744 128.107 37.694 128.107 43.486 117.28 44.936 117.28 51.924 128.013 50.486 128.013 56.186 120.547 57.278 117 57.753 117 77.704 125.493 76.567 119.147 89.737zM105.613 89.058L105.706 85.533 105.89 65.453 115 59.773 107.454 45 85 58.786 92.546 73.652 98.896 69.828 98.712 86.396 98.712 90z"/>
                <path fill="#281203" d="M145 54L145 48.575 149 48 148.902 53.437zM135 56L135 50.421 139 50 139 55.49zM135 66L135 60.42 139 60 139 65.494zM128 67.526L124 68 124 62.474 128 62z"/>
                <path fill="#DB6E54" d="M166.406 43L171 31.122 166.531 30 162 41.87zM175.424 45L181 33.055 175.5 32 170 43.936z"/>
                <path fill="#FFE883" fill-rule="nonzero" d="M171.378 102.11l6.673-10.196 13.577-2.263.039-6.693-21.555 3.586-.076 6.7 4.333-.698-5.369 8.17 2.378 1.395zm19.816-1.884c.592-.095 1.14-.294 1.645-.597.505-.303.955-.684 1.349-1.142.394-.433.702-.926.924-1.48.222-.553.332-1.126.332-1.718v-.074c0-.567-.11-1.091-.332-1.574-.222-.482-.53-.888-.924-1.22-.394-.306-.844-.53-1.349-.67s-1.053-.163-1.645-.068c-.59.095-1.139.294-1.644.597-.505.303-.955.672-1.349 1.105-.394.458-.702.964-.924 1.517-.222.554-.333 1.114-.333 1.68v.075c0 .592.111 1.129.333 1.61.222.483.53.877.924 1.183.394.332.844.567 1.349.708.505.14 1.053.163 1.644.068zM178.676 106l7.324-1.165-.231-9.39-7.325 1.132.232 9.423zM205.2 92.657l7.196-1.238-.114-6.318 3.94-.653-.039-2.81-3.938.654-.038-2.44 3.181-.683-.151-2.829-13.294 2.823.19 2.786 2.84-.556.038 2.106-3.9.648.037 2.846 3.939-.654.113 6.318zm11.003-1.91c.79-.126 1.463-.508 2.018-1.148.556-.64.834-1.351.834-2.135v-.074c0-.759-.278-1.37-.834-1.832-.555-.462-1.228-.63-2.018-.504-.766.122-1.426.503-1.982 1.143-.555.64-.833 1.339-.833 2.098v.073c0 .784.278 1.407.833 1.87.556.462 1.216.632 1.982.51zm-16.188 1.883l3.928-3.096-1.7-1.707-3.966 3.101 1.738 1.702zm1.136 11.56l7.727-1.256v-.2l7.646-1.164 1.586-.21-.04-1.55-.082-7.495v-1.517l-8.419 1.365v3.035l5.369-.845.04 4.466-6.14.887v-1.238l5.124-.807v-2.037l-5.125.847v-4.033l-7.727 1.217.04 10.536zm37.855-8.47l5.155-1.079 4.171-.632-.039-11.502-.787.119v-8.045l-15.111 2.217v2.868l9.05-1.335v5.14l-5.784.876.079-3.587-2.991.416-.157 5.052v1.452l8.224-1.284v1.043l-10.428 5.492 1.26 2.378 9.168-4.779v1.974l-1.85.355.04 2.862zm-11.805-5.893v-.148l3.384-.427 1.692-.232v-1.443l-.13-6.861-.044-1.4-1.605.22-2.646.4v2.81l1.04-.142.044 3.989-1.779.244-.043-6.985-7.115 1.05.043 9.906 7.159-.981zm34.744-3.13v-6.084l9.015-1.627L271 67l-16.82 2.348-1.288.162-.235 1.284-.546 3.26 2.966.03.351-1.982 8.586-1.107v6.35l-3.63.676-1.404.294v8.843l2.966-.46zm-.625 9.124c.822-.09 1.518-.424 2.087-1 .549-.553.875-1.239.98-2.058V92.7c0-.401-.052-.767-.157-1.098-.106-.332-.274-.616-.506-.853-.253-.254-.543-.44-.87-.556-.327-.116-.68-.155-1.06-.115-.4.044-.78.152-1.138.326-.359.174-.675.399-.95.675-.274.276-.495.591-.664.946-.168.354-.274.724-.316 1.11v.064c-.042.851.19 1.5.696 1.946.253.233.538.414.854.543.316.128.664.173 1.044.133z"/>
            </g>
        </g>
    </g>
</svg>
